<svg width="20" height="20" viewBox="0 0 20 20" fill="none" xmlns="http://www.w3.org/2000/svg">
<path d="M9.375 12.5C9.72018 12.5 10 12.2202 10 11.875C10 11.5298 9.72018 11.25 9.375 11.25C9.02982 11.25 8.75 11.5298 8.75 11.875C8.75 12.2202 9.02982 12.5 9.375 12.5Z" fill="white"/>
<path d="M17.3125 5.8125L12.9375 1.4375C12.8825 1.37646 12.8149 1.32809 12.7393 1.29572C12.6638 1.26335 12.5821 1.24775 12.5 1.25H6.25C5.91878 1.25099 5.60142 1.383 5.36721 1.61721C5.133 1.85141 5.00099 2.16878 5 2.5V8.75H3.75C3.41858 8.75033 3.10083 8.88213 2.86648 9.11648C2.63213 9.35083 2.50033 9.66858 2.5 10V13.75C2.50033 14.0814 2.63213 14.3992 2.86648 14.6335C3.10083 14.8679 3.41858 14.9997 3.75 15H5V17.5C5.00099 17.8312 5.133 18.1486 5.36721 18.3828C5.60142 18.617 5.91878 18.749 6.25 18.75H16.25C16.5812 18.749 16.8986 18.617 17.1328 18.3828C17.367 18.1486 17.499 17.8312 17.5 17.5V6.25C17.5022 6.16786 17.4866 6.08622 17.4542 6.01069C17.4219 5.93517 17.3735 5.86755 17.3125 5.8125ZM12.5 2.75L16 6.25H12.5V2.75ZM3.75 10H9.74813L11.875 11.875L9.75438 13.75H3.75V10ZM16.25 17.5H6.25V15H9.75563C10.0573 14.9993 10.3486 14.8899 10.5763 14.6919L12.6912 12.8225C12.8269 12.7055 12.9358 12.5607 13.0107 12.398C13.0855 12.2353 13.1246 12.0584 13.1251 11.8792C13.1257 11.7001 13.0879 11.523 13.0141 11.3597C12.9403 11.1965 12.8323 11.051 12.6975 10.9331L10.57 9.0525C10.3437 8.85749 10.055 8.75015 9.75625 8.75H6.25V2.5H11.25V6.25C11.251 6.58122 11.383 6.89858 11.6172 7.13279C11.8514 7.367 12.1688 7.49901 12.5 7.5H16.25V17.5Z" fill="white"/>
</svg>
