<svg width="33" height="33" viewBox="0 0 33 33" fill="none" xmlns="http://www.w3.org/2000/svg">
<path d="M9.62877 4.84615C9.81751 4.30601 10.1672 3.83839 10.6296 3.50774C11.092 3.1771 11.6443 2.9997 12.2105 3H17.6842C18.2504 2.9997 18.8028 3.1771 19.2652 3.50774C19.7276 3.83839 20.0772 4.30601 20.266 4.84615H23.1579C23.8837 4.84615 24.5799 5.13791 25.0931 5.65724C25.6064 6.17657 25.8947 6.88094 25.8947 7.61539V26.9705C25.1115 27.3648 24.4725 28.001 24.0702 28.7871C23.7248 28.109 23.2016 27.5403 22.5579 27.1433C21.9142 26.7462 21.1749 26.5362 20.4211 26.5362C19.6672 26.5362 18.9279 26.7462 18.2842 27.1433C17.6405 27.5403 17.1173 28.109 16.7719 28.7871C16.2803 27.8039 15.4228 27.0586 14.388 26.7152C13.3533 26.3717 12.2261 26.4582 11.2545 26.9557C10.2828 27.4532 9.5462 28.3208 9.20677 29.3678C8.86733 30.4148 8.95285 31.5553 9.44449 32.5385H6.73684C6.01099 32.5385 5.31486 32.2467 4.8016 31.7274C4.28834 31.208 4 30.5037 4 29.7692V7.61539C4 6.88094 4.28834 6.17657 4.8016 5.65724C5.31486 5.13791 6.01099 4.84615 6.73684 4.84615H9.62877ZM12.2105 4.84615C11.9686 4.84615 11.7365 4.94341 11.5654 5.11652C11.3944 5.28963 11.2982 5.52442 11.2982 5.76923C11.2982 6.01405 11.3944 6.24883 11.5654 6.42195C11.7365 6.59506 11.9686 6.69231 12.2105 6.69231H17.6842C17.9262 6.69231 18.1582 6.59506 18.3293 6.42195C18.5004 6.24883 18.5965 6.01405 18.5965 5.76923C18.5965 5.52442 18.5004 5.28963 18.3293 5.11652C18.1582 4.94341 17.9262 4.84615 17.6842 4.84615H12.2105ZM15.4035 30.6923C15.4035 31.3043 15.1632 31.8913 14.7355 32.3241C14.3078 32.7569 13.7277 33 13.1228 33C12.5179 33 11.9378 32.7569 11.5101 32.3241C11.0824 31.8913 10.8421 31.3043 10.8421 30.6923C10.8421 30.0803 11.0824 29.4933 11.5101 29.0605C11.9378 28.6277 12.5179 28.3846 13.1228 28.3846C13.7277 28.3846 14.3078 28.6277 14.7355 29.0605C15.1632 29.4933 15.4035 30.0803 15.4035 30.6923ZM20.4211 33C21.0259 33 21.606 32.7569 22.0338 32.3241C22.4615 31.8913 22.7018 31.3043 22.7018 30.6923C22.7018 30.0803 22.4615 29.4933 22.0338 29.0605C21.606 28.6277 21.0259 28.3846 20.4211 28.3846C19.8162 28.3846 19.2361 28.6277 18.8084 29.0605C18.3806 29.4933 18.1404 30.0803 18.1404 30.6923C18.1404 31.3043 18.3806 31.8913 18.8084 32.3241C19.2361 32.7569 19.8162 33 20.4211 33ZM27.7193 33C28.3242 33 28.9043 32.7569 29.332 32.3241C29.7597 31.8913 30 31.3043 30 30.6923C30 30.0803 29.7597 29.4933 29.332 29.0605C28.9043 28.6277 28.3242 28.3846 27.7193 28.3846C27.1144 28.3846 26.5343 28.6277 26.1066 29.0605C25.6789 29.4933 25.4386 30.0803 25.4386 30.6923C25.4386 31.3043 25.6789 31.8913 26.1066 32.3241C26.5343 32.7569 27.1144 33 27.7193 33Z" fill="#0E8444"/>
</svg>
