<svg width="24" height="25" viewBox="0 0 24 25" fill="none" xmlns="http://www.w3.org/2000/svg">
<path d="M4.5 14.8438C3.90326 14.8438 3.33097 14.5968 2.90901 14.1573C2.48705 13.7177 2.25 13.1216 2.25 12.5C2.25 11.8784 2.48705 11.2823 2.90901 10.8427C3.33097 10.4032 3.90326 10.1563 4.5 10.1562C5.09674 10.1562 5.66903 10.4032 6.09099 10.8427C6.51295 11.2823 6.75 11.8784 6.75 12.5C6.75 13.1216 6.51295 13.7177 6.09099 14.1573C5.66903 14.5968 5.09674 14.8438 4.5 14.8438ZM12 14.8438C11.4033 14.8438 10.831 14.5968 10.409 14.1573C9.98705 13.7177 9.75 13.1216 9.75 12.5C9.75 11.8784 9.98705 11.2823 10.409 10.8427C10.831 10.4032 11.4033 10.1563 12 10.1562C12.5967 10.1562 13.169 10.4032 13.591 10.8427C14.0129 11.2823 14.25 11.8784 14.25 12.5C14.25 13.1216 14.0129 13.7177 13.591 14.1573C13.169 14.5968 12.5967 14.8438 12 14.8438ZM19.5 14.8438C18.9033 14.8438 18.331 14.5968 17.909 14.1573C17.4871 13.7177 17.25 13.1216 17.25 12.5C17.25 11.8784 17.4871 11.2823 17.909 10.8427C18.331 10.4032 18.9033 10.1563 19.5 10.1562C20.0967 10.1562 20.669 10.4032 21.091 10.8427C21.5129 11.2823 21.75 11.8784 21.75 12.5C21.75 13.1216 21.5129 13.7177 21.091 14.1573C20.669 14.5968 20.0967 14.8438 19.5 14.8438Z" fill="#A1A0BD"/>
</svg>
