<svg width="17" height="17" viewBox="0 0 17 17" fill="none" xmlns="http://www.w3.org/2000/svg">
<path d="M15.7857 4.85714H12.1429V1.21429C12.1429 0.892237 12.0149 0.583379 11.7872 0.355656C11.5595 0.127933 11.2506 0 10.9286 0H1.21429C0.892237 0 0.583379 0.127933 0.355656 0.355656C0.127933 0.583379 0 0.892237 0 1.21429V10.9286C0 11.2506 0.127933 11.5595 0.355656 11.7872C0.583379 12.0149 0.892237 12.1429 1.21429 12.1429H4.85714V15.7857C4.85714 16.1078 4.98508 16.4166 5.2128 16.6443C5.44052 16.8721 5.74938 17 6.07143 17H15.7857C16.1078 17 16.4166 16.8721 16.6443 16.6443C16.8721 16.4166 17 16.1078 17 15.7857V6.07143C17 5.74938 16.8721 5.44052 16.6443 5.2128C16.4166 4.98508 16.1078 4.85714 15.7857 4.85714Z" fill="white"/>
</svg>
