<svg width="44" height="44" viewBox="0 0 44 44" fill="none" xmlns="http://www.w3.org/2000/svg">
<path d="M14.6667 22C16.6116 22 18.4769 21.2274 19.8521 19.8521C21.2274 18.4769 22 16.6116 22 14.6667C22 12.7218 21.2274 10.8565 19.8521 9.48123C18.4769 8.10596 16.6116 7.33334 14.6667 7.33334C12.7218 7.33334 10.8565 8.10596 9.48122 9.48123C8.10596 10.8565 7.33334 12.7218 7.33334 14.6667C7.33334 16.6116 8.10596 18.4769 9.48122 19.8521C10.8565 21.2274 12.7218 22 14.6667 22ZM31.1667 22C32.6254 22 34.0243 21.4205 35.0558 20.3891C36.0872 19.3576 36.6667 17.9587 36.6667 16.5C36.6667 15.0413 36.0872 13.6424 35.0558 12.6109C34.0243 11.5795 32.6254 11 31.1667 11C29.708 11 28.309 11.5795 27.2776 12.6109C26.2461 13.6424 25.6667 15.0413 25.6667 16.5C25.6667 17.9587 26.2461 19.3576 27.2776 20.3891C28.309 21.4205 29.708 22 31.1667 22ZM7.79167 25.6667C6.69765 25.6667 5.64844 26.1013 4.87486 26.8749C4.10127 27.6484 3.66667 28.6977 3.66667 29.7917V30.25C3.66667 30.25 3.66667 38.5 14.6667 38.5C25.6667 38.5 25.6667 30.25 25.6667 30.25V29.7917C25.6667 28.6977 25.2321 27.6484 24.4585 26.8749C23.6849 26.1013 22.6357 25.6667 21.5417 25.6667H7.79167ZM31.1667 35.75C29.0198 35.75 27.3753 35.4182 26.1158 34.9103C26.8488 33.6732 27.3089 32.2936 27.4652 30.8642C27.483 30.6905 27.4946 30.5162 27.5 30.3417V29.7917C27.5023 28.2558 26.9097 26.7787 25.8463 25.6703C25.9086 25.6677 25.971 25.6665 26.0333 25.6667H36.3C37.3697 25.6667 38.3956 26.0916 39.152 26.848C39.9084 27.6044 40.3333 28.6303 40.3333 29.7C40.3333 29.7 40.3333 35.75 31.1667 35.75Z" fill="#5C66A3"/>
</svg>
