<svg width="48" height="48" viewBox="0 0 48 48" fill="none" xmlns="http://www.w3.org/2000/svg">
<path fill-rule="evenodd" clip-rule="evenodd" d="M24.04 6C19.523 6 15.407 7.492 12.972 8.711C12.752 8.821 12.547 8.929 12.356 9.033C11.978 9.239 11.656 9.431 11.4 9.6L14.17 13.678L15.474 14.197C20.57 16.768 27.404 16.768 32.501 14.197L33.981 13.429L36.601 9.6C36.0582 9.24599 35.4938 8.92637 34.911 8.643C32.489 7.437 28.472 6 24.04 6ZM17.597 10.616C16.6161 10.4324 15.6473 10.1893 14.696 9.888C16.977 8.875 20.377 7.8 24.039 7.8C26.576 7.8 28.975 8.316 30.959 8.97C28.634 9.297 26.153 9.852 23.789 10.535C21.929 11.073 19.755 11.015 17.597 10.616ZM33.557 15.68L33.312 15.804C27.705 18.632 20.269 18.632 14.662 15.804L14.43 15.686C6.008 24.927 -0.421995 41.997 24.04 41.997C48.5 41.997 41.913 24.608 33.557 15.68ZM23 24C22.4696 24 21.9609 24.2107 21.5858 24.5858C21.2107 24.9609 21 25.4696 21 26C21 26.5304 21.2107 27.0391 21.5858 27.4142C21.9609 27.7893 22.4696 28 23 28V24ZM25 22V21H23V22C21.9391 22 20.9217 22.4214 20.1716 23.1716C19.4214 23.9217 19 24.9391 19 26C19 27.0609 19.4214 28.0783 20.1716 28.8284C20.9217 29.5786 21.9391 30 23 30V34C22.5864 34.0001 22.1829 33.872 21.8452 33.6332C21.5074 33.3945 21.2519 33.0569 21.114 32.667C21.0257 32.4169 20.8416 32.2121 20.6023 32.0977C20.363 31.9833 20.0881 31.9687 19.838 32.057C19.5879 32.1453 19.3831 32.3294 19.2687 32.5687C19.1543 32.808 19.1397 33.0829 19.228 33.333C19.5038 34.113 20.0147 34.7883 20.6902 35.2659C21.3657 35.7435 22.1727 36 23 36V37H25V36C26.0609 36 27.0783 35.5786 27.8284 34.8284C28.5786 34.0783 29 33.0609 29 32C29 30.9391 28.5786 29.9217 27.8284 29.1716C27.0783 28.4214 26.0609 28 25 28V24C25.87 24 26.611 24.555 26.887 25.333C26.928 25.4603 26.994 25.5781 27.0813 25.6794C27.1685 25.7807 27.2752 25.8635 27.395 25.9228C27.5149 25.9822 27.6454 26.0169 27.7788 26.0249C27.9123 26.033 28.046 26.0142 28.1721 25.9696C28.2982 25.9251 28.414 25.8557 28.5128 25.7656C28.6116 25.6755 28.6913 25.5665 28.7473 25.4451C28.8032 25.3236 28.8342 25.1922 28.8384 25.0585C28.8427 24.9249 28.8201 24.7918 28.772 24.667C28.4962 23.887 27.9853 23.2117 27.3098 22.7341C26.6343 22.2565 25.8273 22 25 22ZM25 30V34C25.5304 34 26.0391 33.7893 26.4142 33.4142C26.7893 33.0391 27 32.5304 27 32C27 31.4696 26.7893 30.9609 26.4142 30.5858C26.0391 30.2107 25.5304 30 25 30Z" fill="#FE6BBA"/>
</svg>
